<?xml version="1.0" encoding="utf-8"?>
<!-- Generator: Adobe Illustrator 25.2.1, SVG Export Plug-In . SVG Version: 6.00 Build 0)  -->
<svg version="1.1" id="Layer_1" xmlns="http://www.w3.org/2000/svg" xmlns:xlink="http://www.w3.org/1999/xlink" x="0px" y="0px"
	 viewBox="0 0 69.3 68.3" style="enable-background:new 0 0 69.3 68.3;" xml:space="preserve">
<style type="text/css">
	.st0{fill:url(#SVGID_1_);}
	.st1{fill:#22566E;}
</style>
<linearGradient id="SVGID_1_" gradientUnits="userSpaceOnUse" x1="14.891" y1="38.5195" x2="14.891" y2="67.4326">
	<stop  offset="0" style="stop-color:#61FD7D"/>
	<stop  offset="1" style="stop-color:#2BB826"/>
</linearGradient>
<path class="st0" d="M25.4,42.8c-2.8-2.8-6.5-4.3-10.5-4.3c-8.2,0-14.8,6.6-14.8,14.8c0,2.6,0.7,5.2,2,7.4L0,68.3l7.9-2.1
	c2.2,1.2,4.6,1.8,7.1,1.8h0c8.2,0,14.8-6.6,14.8-14.8C29.8,49.3,28.2,45.6,25.4,42.8z M22.9,59c-0.3,0.9-1.9,1.8-2.7,1.9
	c-0.7,0.1-1.6,0.1-2.5-0.2c-0.6-0.2-1.3-0.4-2.3-0.8c-4-1.7-6.7-5.8-6.9-6.1c-0.2-0.3-1.6-2.2-1.6-4.2c0-2,1-2.9,1.4-3.3
	c0.4-0.4,0.8-0.5,1.1-0.5s0.5,0,0.8,0c0.2,0,0.6-0.1,0.9,0.7c0.3,0.8,1.1,2.8,1.2,3c0.1,0.2,0.2,0.4,0,0.7c-0.1,0.3-0.2,0.4-0.4,0.7
	c-0.2,0.2-0.4,0.5-0.6,0.7c-0.2,0.2-0.4,0.4-0.2,0.8c0.2,0.4,1,1.7,2.2,2.8c1.5,1.4,2.8,1.8,3.2,2c0.4,0.2,0.6,0.2,0.9-0.1
	c0.2-0.3,1-1.2,1.3-1.6c0.3-0.4,0.5-0.3,0.9-0.2c0.4,0.1,2.3,1.1,2.7,1.3h0c0.4,0.2,0.7,0.3,0.8,0.5C23.2,57.2,23.2,58,22.9,59z"/>
<g>
	<path class="st1" d="M6.1,5.9v29.6h4V5.9c0-1.1,0.9-2,2-2h13.8v25.7c0,1.1,0.9,2,2,2h19.8c1.1,0,2-0.9,2-2V4h13.8c1.1,0,2,0.9,2,2
		v51.4c0,1.1-0.9,2-2,2H33.7v4h29.6l0,0c3.3,0,5.9-2.7,5.9-5.9V5.9c0-3.3-2.7-5.9-5.9-5.9L12,0C8.7,0,6.1,2.7,6.1,5.9z M29.8,4h15.8
		v15.8H29.8V4z"/>
	<path class="st1" d="M51.5,43.5c-1.1,0-2,0.9-2,2v7.9c0,1.1,0.9,2,2,2h7.9c1.1,0,2-0.9,2-2v-7.9c0-1.1-0.9-2-2-2H51.5z M53.5,47.4
		h4v4h-4V47.4z"/>
	<rect x="41.6" y="43.5" class="st1" width="4" height="4"/>
	<rect x="33.7" y="43.5" class="st1" width="4" height="4"/>
	<rect x="33.7" y="51.4" class="st1" width="11.9" height="4"/>
</g>
</svg>
